<svg width="107" height="127" viewBox="0 0 107 127" fill="none" xmlns="http://www.w3.org/2000/svg">
<path d="M16.2572 92.8975L16.2571 92.8972C14.6798 88.8135 13.5208 84.5301 12.3871 80.3399C11.7814 78.1012 11.1829 75.8891 10.5316 73.7482C9.0336 68.8591 6.73553 64.252 3.73084 60.1144L3.72498 60.1063L3.725 60.1063C1.4626 56.9468 0.772423 53.428 2.79616 50.3073L16.2572 92.8975ZM16.2572 92.8975C18.3947 98.4271 21.0892 103.626 25.2946 108.554C28.5023 113.238 33.171 116.835 38.3378 119.679L38.3381 119.679C44.5194 123.079 51.2967 125.068 58.3665 124.86L58.367 124.86M16.2572 92.8975L58.367 124.86M29.462 73.8896L29.4707 73.9193C29.6771 74.6218 29.9658 75.296 30.3302 75.9283C30.5766 74.2437 30.8242 72.56 31.0716 70.877C32.5484 60.8322 34.0216 50.8116 35.2364 40.7535C35.8743 35.4378 36.6064 30.113 37.3365 24.803C37.7983 21.444 38.2593 18.0909 38.6951 14.7497L38.6953 14.7484C39.1047 11.6315 40.4578 8.95989 43.5948 7.39004L43.5968 7.38906C46.4668 5.95802 49.3299 6.36277 51.7836 7.796L51.7863 7.79758C53.5651 8.84157 54.955 10.3412 55.5671 12.2606C55.7201 11.1155 55.8763 9.97076 56.0374 8.82713L56.0375 8.82678C56.6918 4.19113 60.937 1.12257 65.5776 1.56953C65.5785 1.56961 65.5794 1.5697 65.5803 1.56979M29.462 73.8896L65.4361 3.06284L65.5803 1.56979M29.462 73.8896L29.452 73.8603L29.462 73.8896ZM65.5803 1.56979C70.0984 1.99931 73.7483 5.8674 73.2349 10.6162L73.2345 10.6192C73.0659 12.1497 72.8902 13.6797 72.7091 15.2092M65.5803 1.56979L72.7091 15.2092M72.7091 15.2092C72.4288 15.8327 72.2297 16.4845 72.1242 17.1481L72.124 17.1493C71.504 21.0693 70.9544 25.0027 70.4071 28.9197C70.2326 30.1682 70.0584 31.4149 69.8822 32.6591L69.882 32.6608C69.7439 33.6437 69.5821 34.8657 69.4041 36.2521C69.4041 36.2522 69.4041 36.2523 69.4041 36.2523C69.0065 39.3492 68.5279 43.2665 68.0514 47.1724L67.9859 47.7099C67.3249 53.1296 66.6752 58.4567 66.2534 61.523L72.7091 15.2092ZM72.7091 15.2092C74.1811 11.9353 77.893 9.44075 82.0571 10.097M72.7091 15.2092L81.8324 11.5801M72.7091 15.2092C72.6304 15.8739 72.5508 16.5386 72.4702 17.2031C72.4702 17.2034 72.4701 17.2037 72.4701 17.204C71.9759 21.2815 71.4494 25.3548 70.9237 29.4216C70.7804 30.5301 70.6372 31.6383 70.4947 32.7458C70.4946 32.7462 70.4946 32.7465 70.4945 32.7468C70.3407 33.9426 70.1877 35.1377 70.0364 36.3322L70.0364 36.3326C69.67 39.2197 68.9805 45.2611 68.3365 50.904C67.8394 55.2599 67.3693 59.3784 67.096 61.6255L72.7091 15.2092ZM82.0571 10.097C82.0534 10.0964 82.0498 10.0959 82.0461 10.0954L81.8324 11.5801M82.0571 10.097C84.2995 10.4226 86.3324 11.5941 87.7385 13.3713C89.147 15.1514 89.8194 17.4036 89.6175 19.6645L89.6168 19.6722L89.6161 19.6798C89.4696 21.1504 89.2971 22.6222 89.1111 24.0914M82.0571 10.097C82.0606 10.0975 82.0642 10.0981 82.0677 10.0986L81.8324 11.5801M81.8324 11.5801L89.1111 24.0914M89.1111 24.0914C88.2531 25.1652 87.652 26.456 87.4162 27.8998C87.1336 29.6297 86.9206 31.3623 86.7214 33.0722C86.7214 33.0723 86.7213 33.0724 86.7213 33.0725C86.6972 33.2796 86.6733 33.4864 86.6494 33.6929C86.635 33.8178 86.6206 33.9425 86.6063 34.0671C86.3998 35.8589 86.1968 37.6203 85.9302 39.374C85.0336 45.2296 81.5172 68.6524 80.8078 74.682L80.3038 74.6179C80.8339 70.5792 82.1109 62.0647 83.3817 53.5916L89.1111 24.0914ZM89.1111 24.0914C88.9419 25.4273 88.7616 26.761 88.5793 28.0898C88.5262 28.4767 88.473 28.8632 88.4198 29.2492C88.2363 30.5809 88.0537 31.9068 87.8813 33.224L87.8811 33.2255C87.6779 34.7656 87.3671 36.9517 86.9902 39.5346L97.5468 20.8636C97.5469 20.8636 97.5469 20.8636 97.547 20.8636M89.1111 24.0914C91.0371 21.681 94.2575 20.364 97.547 20.8636M97.547 20.8636C101.952 21.5324 105.144 26.1918 104.543 30.703L97.547 20.8636ZM54.9681 22.9824C54.7932 24.4151 54.616 25.8468 54.4389 27.277C54.2868 28.5063 54.1348 29.7345 53.9844 30.9614L53.9842 30.9633C53.6942 33.3052 53.3954 35.6461 53.0878 37.986C52.8052 40.1777 52.3444 44.757 51.8802 49.3788L51.8624 49.556C51.4089 54.071 50.9544 58.596 50.6708 60.8259C50.6708 60.8259 50.6708 60.826 50.6708 60.826C50.6693 60.8376 50.6678 60.8491 50.6664 60.8605C50.6491 60.9971 50.625 61.1249 50.6059 61.2218C50.5968 61.268 50.5894 61.3045 50.5829 61.3367C50.5729 61.3859 50.565 61.4251 50.556 61.4736C50.5433 61.5423 50.5382 61.581 50.5362 61.6028C50.5343 61.6248 50.5378 61.607 50.5331 61.5631C50.5281 61.5165 50.5127 61.4298 50.4645 61.3252C50.4138 61.2154 50.34 61.1146 50.2504 61.0342C50.2028 60.9913 50.159 60.9615 50.1237 60.9412C50.1167 60.9434 50.1094 60.9458 50.1017 60.9486C50.0996 60.9494 50.0976 60.9501 50.0955 60.9509C50.0302 60.9752 49.9578 61.0146 49.8889 61.0713C49.8191 61.1289 49.7723 61.1883 49.7438 61.233C49.717 61.2752 49.7085 61.301 49.7103 61.2959C49.7122 61.2905 49.7201 61.2665 49.7309 61.215C49.7418 61.1636 49.7528 61.0986 49.7651 61.0116C49.7767 60.9301 49.7866 60.8507 49.7995 60.7498L49.1785 60.6704M54.9681 22.9824L53.2233 30.8681C53.2233 30.8684 53.2233 30.8688 53.2232 30.8691C52.9659 33.0952 52.6977 35.4715 52.4261 37.8983L51.6004 37.7918M54.9681 22.9824L55.6805 23.0751M54.9681 22.9824L55.6805 23.0751M49.1785 60.6704L49.7997 60.7487C49.8011 60.7375 49.8026 60.726 49.8041 60.7143L49.8041 60.7141C50.3932 56.1479 51.1538 49.3176 51.9235 42.4042L51.9878 41.827C52.134 40.5138 52.2804 39.1998 52.4259 37.9003L51.6004 37.7918M49.1785 60.6704C49.4592 58.4734 49.9148 53.9366 50.373 49.3756C50.8409 44.7169 51.3114 40.0329 51.6004 37.7918M49.1785 60.6704C49.1642 60.7839 49.1401 60.903 49.1158 61.0235C48.9952 61.6213 48.8676 62.2533 49.8889 62.3991C51.0797 62.569 51.1768 61.8075 51.2821 60.9816C51.2853 60.9565 51.2885 60.9313 51.2918 60.906C51.8826 56.3268 52.6443 49.4862 53.413 42.5823C54.2254 35.2856 55.0457 27.9182 55.6805 23.0751M51.6004 37.7918C51.9076 35.4552 52.2059 33.1175 52.4956 30.7789L57.5228 9.03644C57.0542 12.3618 56.6281 15.6919 56.2019 19.0229C56.0291 20.3736 55.8562 21.7244 55.6805 23.0751M30.6961 76.9072L30.3949 77.1277C30.2346 77.3343 30.1998 77.534 30.1924 77.5959C30.1881 77.6311 30.1897 77.6451 30.1893 77.6222C30.1888 77.5967 30.1871 77.5661 30.183 77.4959L30.1826 77.4903C30.1798 77.4422 30.1755 77.3693 30.1734 77.2898L29.6698 77.6585L30.1732 77.2792C30.1729 77.2661 30.1727 77.2528 30.1725 77.2395L30.6961 76.9072ZM30.6961 76.9072L30.8204 76.9254L30.9317 76.9416L30.988 76.9499L31.682 77.0512L30.9879 76.9492L30.9316 76.9409L30.8207 76.9246L30.6971 76.9065L30.8628 76.7852C30.868 76.7834 30.873 76.7818 30.8779 76.7803C30.8867 76.7776 30.895 76.7752 30.9026 76.7731C30.9346 76.7645 30.9561 76.7611 30.9633 76.7602L30.9326 76.7642L30.902 76.7695C30.8956 76.7706 30.8891 76.7699 30.883 76.7675L30.6961 76.9072ZM58.367 124.86C69.9472 124.514 79.6099 119.429 86.8568 110.509C92.8581 103.131 96.1041 94.4969 97.3187 85.1342L58.367 124.86ZM12.6561 46.7423C16.8013 47.8197 19.0434 51.0625 20.9163 53.7713C21.0829 54.0124 21.2467 54.2492 21.4086 54.4799C21.4087 54.4801 21.4088 54.4802 21.4089 54.4804L20.1811 55.342L12.6561 46.7423ZM12.6561 46.7423C8.97312 45.7823 4.78841 47.2316 2.79685 50.3062L12.6561 46.7423ZM66.2534 61.523C66.2483 61.5604 66.2431 61.5975 66.2381 61.6342C66.223 61.7434 66.2105 61.8328 66.1969 61.9172C66.1835 62.0004 66.1712 62.0643 66.1593 62.1152C66.1474 62.1662 66.1384 62.1925 66.1349 62.2018C66.1315 62.2107 66.1376 62.1918 66.1601 62.1572C66.1838 62.1208 66.2246 62.0689 66.287 62.0167C66.351 61.9633 66.4209 61.9237 66.488 61.8984C66.5045 61.8922 66.5196 61.8872 66.5332 61.8833L66.2534 61.523ZM67.0784 61.7506L67.7239 61.8398L67.0784 61.7506ZM80.8075 74.684C80.8057 74.7 80.8038 74.716 80.8019 74.7318L80.8019 74.7325C80.7898 74.8364 80.7795 74.9197 80.7686 74.9933C80.7577 75.0666 80.7482 75.1162 80.7403 75.1499C80.7213 75.2311 80.7242 75.1624 80.8057 75.0517C80.8512 74.9898 80.9155 74.9228 80.9995 74.8644C81.0581 74.8237 81.1154 74.7949 81.1665 74.775C81.1669 74.7748 81.1672 74.7747 81.1676 74.7746C81.1816 74.7691 81.195 74.7644 81.208 74.7603C81.2151 74.758 81.2221 74.7559 81.2289 74.754C81.2351 74.7522 81.2411 74.7506 81.2468 74.7492C81.267 74.76 81.2905 74.774 81.3164 74.792C81.3166 74.7921 81.3169 74.7923 81.3172 74.7925C81.3413 74.8093 81.3673 74.8296 81.3945 74.8539C81.4816 74.9317 81.5548 75.0288 81.6068 75.1358C81.6568 75.2385 81.6756 75.3263 81.6828 75.3793C81.6896 75.4296 81.6868 75.4554 81.6876 75.4439C81.6883 75.4325 81.6911 75.4041 81.7004 75.347C81.708 75.3008 81.716 75.2577 81.7271 75.1985C81.7309 75.178 81.735 75.1556 81.7397 75.1305C81.7537 75.0547 81.7717 74.9547 81.7865 74.8472C81.7866 74.8471 81.7866 74.847 81.7866 74.8469C81.7882 74.8352 81.7898 74.8233 81.7913 74.8113C82.3144 70.8262 83.57 62.4492 84.8304 54.0452L84.8683 53.7924C85.6314 48.7043 86.3936 43.6228 86.9901 39.5351L87.4132 39.5994L80.8075 74.684ZM81.1717 74.7171C81.172 74.7171 81.1735 74.7175 81.1763 74.7184C81.1728 74.7175 81.1713 74.7171 81.1717 74.7171ZM50.0381 60.9021C50.0381 60.902 50.04 60.9025 50.0434 60.9036C50.0397 60.9027 50.038 60.9021 50.0381 60.9021ZM30.4725 77.0382C30.528 76.9807 30.5839 76.935 30.6371 76.8986L30.6716 76.9037L30.4279 77.0873C30.4419 77.0709 30.4568 77.0545 30.4725 77.0382Z" fill="#C4C4C4" stroke="black" stroke-width="3"/>
</svg>
