<svg viewBox="0 0 192 53" fill="none" xmlns="http://www.w3.org/2000/svg" width="100%" height="100%">
<g id="left-puppet">
<path d="M26.6523 13.4052L2.99976 50.6451M47.1262 12.3717L71.4883 48.6895M46.6821 23.4081L52.4368 48.1494M28.1552 23.3421L30.6568 33.2286" stroke="#0A0A0A"/>
<rect x="23.3107" y="22.2926" width="28.6529" height="6.19523" transform="rotate(-30.3205 23.3107 22.2926)" fill="#0A0A0A"/>
<rect x="25.0996" y="8.7804" width="28.653" height="6.19523" transform="rotate(25.934 25.0996 8.7804)" fill="#0A0A0A"/>
</g>
<g id="right-puppet">
<path d="M146.5 7.35501L122.847 44.5949M166.974 6.32143L191.336 42.6393M166.529 17.3579L172.284 42.0992M148.003 17.2919L146.09 38.9158" stroke="#0A0A0A"/>
<rect x="143.158" y="16.2424" width="28.6529" height="6.19523" transform="rotate(-30.3205 143.158 16.2424)" fill="#0A0A0A"/>
<rect x="144.947" y="2.73016" width="28.653" height="6.19523" transform="rotate(25.934 144.947 2.73016)" fill="#0A0A0A"/>
</g>
</svg>
