<svg viewBox="0 0 24 36" fill="none" xmlns="http://www.w3.org/2000/svg">
<path d="M19.0102 26.0432C21.4077 23.6934 23 20.778 23 17.2216C23 14.2376 21.879 11.7841 20.1018 9.78378C15.2231 11.5923 11.4062 14.799 8.49867 18.396C11.1182 21.5888 14.5485 24.3893 19.0102 26.0432Z" fill="url(#gradient)"/>
<path d="M0.999999 2L1 34C1.7456 30.274 4.06482 23.8812 8.49867 18.396C3.88573 12.7736 1.7874 5.9349 0.999999 2Z" fill="url(#gradient)"/>
<path d="M1 34L0.999999 2M1 34C8.33333 32.9045 23 28.0151 23 17.2216M1 34C1.7456 30.274 4.06482 23.8812 8.49867 18.396M0.999999 2C6.30591 2.41717 15.4508 4.54878 20.1018 9.78378M0.999999 2C1.7874 5.9349 3.88573 12.7736 8.49867 18.396M23 17.2216C23 14.2376 21.879 11.7841 20.1018 9.78378M23 17.2216C23 20.778 21.4077 23.6934 19.0102 26.0432C14.5485 24.3893 11.1182 21.5888 8.49867 18.396M20.1018 9.78378C15.2231 11.5923 11.4062 14.799 8.49867 18.396" stroke="#fcfdff" stroke-width="2"/>
<defs>
<linearGradient id="gradient" x1="1" y1="34" x2="28.1553" y2="19.9981" gradientUnits="userSpaceOnUse">
<stop stop-color="#4f46e5"/>
<stop offset="1" stop-color="#2563eb"/>
</linearGradient>
</defs>
</svg>
