<svg width="10rem" height="100%" viewBox="0 0 200 42" fill="none" xmlns="http://www.w3.org/2000/svg">
<path d="M0.831239 41.2062C6.82013 38.4944 11.5985 34.76 18.3582 32.5938C20.2284 32.3909 22.8857 33.0548 24.1273 32.1681C34.6557 27.1574 34.6258 19.5736 50.1867 24.9415C51.2071 20.4781 59.4584 17.6287 65.6246 14.2106C67.6192 14.1487 69.7627 15.345 71.9067 15.7611C80.3299 10.9434 84.6725 3.28535 96.0386 0.141242C111.154 1.28453 126.623 16.8751 138.214 11.6024C144.913 11.1802 147.779 13.9163 151.734 15.595C153.89 17.0392 158.066 17.3351 160.862 18.3326C162.613 20.1414 166.227 21.1677 169.495 22.3358C173.282 24.1116 177.995 24.8522 183.238 25.4599C188.641 27.636 194.431 29.6809 199.591 31.943C194.401 31.6064 189.871 30.6196 185.27 29.6674C156.532 26.7575 159.344 19.8525 140.145 15.2351C136.955 20.6173 149.119 21.329 153.487 25.2755C165.247 29.4356 146.424 26.1373 140.396 25.0239C132.004 21.3066 135.114 23.7576 135.372 27.7569C125.656 26.9754 109.661 9.19173 111.838 20.3087C102.635 19.8416 103.192 6.06965 98.942 12.4469C95.7737 -1.51382 79.9327 11.0935 77.3772 17.3285C84.7551 17.8488 86.6873 21.394 93.1134 22.0028C101.167 21.7698 102.738 26.278 107.682 28.3991C100.043 28.2901 74.3953 18.0388 72.8078 22.6126C73.2474 23.298 74.4475 24.2222 76.2381 24.3409C84.657 24.537 89.1657 27.5178 94.624 29.7383C96.3653 30.1461 99.2436 29.3892 100.878 29.7391C102.82 30.8489 113.328 35.9527 108.989 35.3256C97.1982 33.6008 87.1521 31.2537 79.0865 27.3046C69.1014 26.9498 68.3515 22.347 63.9242 19.2896C47.0988 28.0816 54.1561 24.1651 66.2692 29.1426C75.3919 34.557 64.1669 30.6 56.8085 29.3089C53.3945 28.9537 52.1439 27.0344 48.7571 26.9551C45.6619 26.899 37.6709 27.6318 41.7658 29.071C57.0145 30.3766 61.214 32.0936 67.1704 37.8893C65.2617 38.5418 52.6946 36.0647 47.1813 35.6501C46.5124 35.5787 45.8966 35.4477 45.3706 35.265C44.8446 35.0822 44.4193 34.8515 44.1202 34.5866C42.1197 32.3233 36.4133 32.0922 32.819 30.4413C23.44 34.5859 11.1116 37.8191 0.831239 41.2062Z" fill="#0A0A0A"/>
</svg>
